<svg width="49" height="48" viewBox="0 0 49 48" fill="none" xmlns="http://www.w3.org/2000/svg">
<circle cx="24.3965" cy="23.7069" r="23.7069" fill="#D8503F"/>
<path d="M37.4371 21.3144C37.595 22.2055 37.6737 23.1083 37.6724 24.0127C37.6724 28.0517 36.1996 31.4668 33.6365 33.7784H33.6399C31.3984 35.8079 28.3173 36.9828 24.664 36.9828C21.0721 36.9828 17.6273 35.5841 15.0874 33.0945C12.5476 30.6048 11.1207 27.2282 11.1207 23.7073C11.1207 20.1865 12.5476 16.8098 15.0874 14.3202C17.6273 11.8306 21.0721 10.4319 24.664 10.4319C28.026 10.3933 31.2729 11.6314 33.7245 13.8868L29.8579 17.677C28.4602 16.371 26.5948 15.6558 24.664 15.6857C21.1309 15.6857 18.1294 18.0221 17.0594 21.1684C16.4921 22.8171 16.4921 24.6026 17.0594 26.2512H17.0645C18.1395 29.3925 21.136 31.729 24.6691 31.729C26.4941 31.729 28.0617 31.271 29.2772 30.4612H29.2721C29.9779 30.0029 30.5817 29.4091 31.0469 28.7158C31.5122 28.0225 31.8293 27.2439 31.9791 26.4271H24.664V21.3161L37.4371 21.3144Z" fill="white"/>
</svg>
