<svg width="48" height="48" viewBox="0 0 48 48" fill="none" xmlns="http://www.w3.org/2000/svg">
<circle cx="23.7069" cy="23.7069" r="23.7069" fill="#FFE600"/>
<path fill-rule="evenodd" clip-rule="evenodd" d="M23.2362 12.1829C16.166 12.1829 10.431 16.7086 10.431 22.2958C10.431 25.8871 12.8078 29.0378 16.3729 30.8336L15.1645 35.3392C15.1178 35.4727 15.1578 35.6263 15.258 35.7264C15.3247 35.7931 15.4182 35.8333 15.5184 35.8333C15.5985 35.8333 15.6719 35.7998 15.7387 35.7464L20.9261 32.242C21.6805 32.3487 22.4483 32.4089 23.2295 32.4089C30.2995 32.4089 36.0345 27.8831 36.0345 22.2958C36.0412 16.7086 30.3062 12.1829 23.2362 12.1829Z" fill="#381E1E"/>
<path fill-rule="evenodd" clip-rule="evenodd" d="M14.916 20.7212H13.5017C13.3055 20.7212 13.1431 20.674 13.001 20.5863C12.8589 20.4987 12.7777 20.3705 12.7438 20.2088C12.7371 20.1682 12.7303 20.1143 12.7235 20.0672C12.7235 19.8649 12.798 19.703 12.9468 19.5884C13.0957 19.4738 13.2784 19.4131 13.5017 19.4131H17.8189C18.0151 19.4131 18.1842 19.4604 18.3197 19.548C18.4618 19.6357 18.5496 19.757 18.5835 19.9256C18.5904 19.9728 18.5971 20.0199 18.5904 20.0672C18.5904 20.2761 18.516 20.438 18.3738 20.5526C18.2317 20.6673 18.049 20.7212 17.8189 20.7212H16.4114V25.5691C16.4114 25.7984 16.3437 25.9871 16.2084 26.1287C16.0731 26.2703 15.8904 26.3378 15.6603 26.3378C15.4708 26.3378 15.3152 26.2839 15.1799 26.1827C15.0445 26.0747 14.9633 25.94 14.9295 25.7578C14.916 25.6905 14.916 25.6298 14.916 25.5624V20.7212Z" fill="#FFE600"/>
<path fill-rule="evenodd" clip-rule="evenodd" d="M18.996 19.876C19.0561 19.7108 19.143 19.5917 19.2635 19.5189C19.3839 19.4463 19.531 19.4131 19.7185 19.4131H20.0729C20.2669 19.4131 20.4274 19.4528 20.5545 19.5256C20.6817 19.5983 20.7885 19.7504 20.8622 19.9686L22.6481 25.0805C22.7084 25.2392 22.7484 25.3715 22.7685 25.4903C22.7819 25.5632 22.7953 25.6226 22.7953 25.669C22.7953 25.8541 22.7218 26.0128 22.588 26.1386C22.4541 26.2708 22.2869 26.3303 22.0997 26.3303C21.7584 26.3303 21.5378 26.1915 21.4375 25.9136L21.0562 24.8026H18.6748L18.2936 25.9136C18.1999 26.1915 17.9792 26.3303 17.6314 26.3303C17.4575 26.3303 17.3103 26.2906 17.1967 26.198C17.0762 26.1119 17.0026 25.9797 16.9692 25.821C16.9558 25.7748 16.9558 25.7219 16.9558 25.669C16.9558 25.5961 16.9625 25.5037 16.996 25.3979C17.0227 25.2919 17.0562 25.1861 17.0963 25.087L18.996 19.876ZM19.8856 21.0596H19.8655L18.996 23.7445H20.7217L19.8856 21.0596Z" fill="#FFE600"/>
<path fill-rule="evenodd" clip-rule="evenodd" d="M22.9581 20.162C22.9581 19.9386 23.0237 19.7547 23.1545 19.6168C23.2856 19.4789 23.4624 19.4131 23.6852 19.4131C23.8686 19.4131 24.0257 19.4657 24.1502 19.5642C24.2747 19.6628 24.3599 19.8007 24.3925 19.9716C24.4057 20.0372 24.4122 20.0964 24.4057 20.162V24.8923H26.8225C27.0192 24.8923 27.1828 24.9317 27.3138 25.0237C27.4449 25.1091 27.53 25.2339 27.5561 25.3916C27.5694 25.4309 27.5759 25.4836 27.5759 25.5295C27.5759 25.7332 27.5038 25.8908 27.3597 25.9959C27.2156 26.1077 27.0387 26.1603 26.8225 26.1603H23.8031C23.5804 26.1603 23.397 26.1142 23.2595 26.0222C23.1219 25.9303 23.0302 25.7857 22.9844 25.5755C22.9646 25.4901 22.9581 25.3916 22.9516 25.2799L22.9581 20.162Z" fill="#FFE600"/>
<path fill-rule="evenodd" clip-rule="evenodd" d="M27.7129 20.167C27.7129 19.9421 27.7804 19.757 27.9153 19.6182C28.0504 19.4792 28.2326 19.4131 28.462 19.4131C28.6511 19.4131 28.8062 19.466 28.9411 19.5651C29.0762 19.6644 29.1572 19.8032 29.1909 19.9753C29.2044 20.0412 29.2111 20.1008 29.2044 20.167L29.2111 22.3822L31.5532 19.7437C31.6611 19.6312 31.7487 19.5521 31.8366 19.4925C31.9242 19.4396 32.0256 19.4131 32.1469 19.4131C32.309 19.4131 32.4575 19.4595 32.5924 19.5454C32.7275 19.6312 32.8084 19.7504 32.8421 19.9025C32.8421 19.909 32.849 19.9289 32.8557 19.9619C32.8557 19.9818 32.8557 20.0083 32.8624 20.0215C32.8624 20.1273 32.8354 20.2199 32.795 20.2992C32.7477 20.3853 32.6869 20.4645 32.6194 20.544L31.0874 22.1838L32.8962 24.9944L32.9502 25.0805C33.0717 25.2722 33.1459 25.4111 33.166 25.5037C33.166 25.5103 33.1729 25.5302 33.1796 25.5499C33.1796 25.5764 33.1796 25.5896 33.1796 25.5961C33.1796 25.8541 33.1054 26.0458 32.9569 26.1583C32.8084 26.2708 32.6262 26.3303 32.4169 26.3303C32.2617 26.3303 32.1402 26.3038 32.0457 26.2509C31.9514 26.1915 31.85 26.0922 31.7556 25.9335L30.0345 23.2222L29.218 24.0554L29.2247 25.5699C29.2247 25.7947 29.1572 25.9797 29.0223 26.1186C28.8872 26.2574 28.705 26.3237 28.4756 26.3237C28.2865 26.3237 28.1247 26.2708 27.9963 26.1715C27.8681 26.0657 27.7804 25.9335 27.7466 25.7548C27.7332 25.6887 27.7332 25.6293 27.7332 25.5632L27.7129 20.167Z" fill="#FFE600"/>
</svg>
