<svg width="49" height="48" viewBox="0 0 49 48" fill="none" xmlns="http://www.w3.org/2000/svg">
<circle cx="24.6034" cy="23.7069" r="23.7069" fill="#5CA847"/>
<path fill-rule="evenodd" clip-rule="evenodd" d="M21.6041 14.1473C19.1089 14.0345 16.6058 14.1151 14.1027 14.107C14.1187 20.8245 14.1107 27.542 14.1107 34.2595C16.6058 34.2756 19.1089 34.2676 21.6041 34.2595C21.6439 30.933 21.556 27.5984 21.6439 24.2638C22.4676 25.4156 23.2114 26.6238 24.0512 27.7595C25.4506 29.9503 27.0341 32.0123 28.3776 34.2353C30.8967 34.2998 33.4078 34.2353 35.9268 34.2756C35.9508 33.9615 35.9828 33.6474 35.9828 33.3332C35.9429 26.9218 36.0148 20.5103 35.9508 14.099C33.4638 14.0829 30.9766 14.107 28.4895 14.0909C28.4736 17.4416 28.5056 20.7923 28.4655 24.1349C26.1545 20.8325 23.9713 17.4175 21.6041 14.1473Z" fill="white"/>
</svg>
