<svg width="48" height="48" viewBox="0 0 48 48" fill="none" xmlns="http://www.w3.org/2000/svg">
<circle cx="24.2931" cy="23.7069" r="23.7069" fill="black"/>
<path d="M30.1057 8.54777C30.0486 8.48471 27.9934 8.57266 26.205 10.4927C24.4165 12.411 24.6917 14.6115 24.7319 14.6679C24.7722 14.7243 27.2821 14.8123 28.8843 12.5803C30.4865 10.3483 30.1627 8.61249 30.1057 8.54777ZM35.6656 28.0184C35.5851 27.8591 31.7649 25.9706 32.1206 22.3397C32.4763 18.7071 34.9308 17.7114 34.9694 17.6035C35.008 17.4957 33.9678 16.2925 32.8655 15.6835C32.0562 15.2541 31.1605 15.0081 30.2432 14.9633C30.062 14.9583 29.4329 14.8056 28.1394 15.1558C27.2871 15.3865 25.3661 16.1332 24.8376 16.1631C24.3075 16.193 22.7304 15.2969 21.0342 15.0595C19.9487 14.8521 18.7978 15.2769 17.9741 15.6039C17.152 15.9291 15.5883 16.8551 14.4945 19.3161C13.4006 21.7754 13.9727 25.6719 14.382 26.8833C14.7914 28.0931 15.4306 30.0761 16.5178 31.5232C17.4842 33.1561 18.7659 34.2895 19.3011 34.6745C19.8363 35.0595 21.3463 35.3151 22.3932 34.7857C23.2354 34.2746 24.7554 33.9809 25.356 34.0024C25.955 34.024 27.1361 34.258 28.3457 34.8969C29.3037 35.2238 30.2097 35.0877 31.1173 34.7227C32.025 34.3559 33.3386 32.9653 34.8721 30.1458C35.4542 28.8348 35.7193 28.1262 35.6656 28.0184Z" fill="white"/>
</svg>
